<svg width="38" height="43" viewBox="0 0 38 43" fill="none" xmlns="http://www.w3.org/2000/svg">
<path d="M19 0.166504C23.9728 0.166504 28.7419 2.14194 32.2582 5.65825C35.7746 9.17456 37.75 13.9437 37.75 18.9165C37.75 25.3207 34.2583 30.5623 30.5792 34.3228C28.7407 36.1809 26.735 37.8658 24.5875 39.3561L23.7 39.9603L23.2833 40.2373L22.4979 40.7373L21.7979 41.1644L20.9312 41.6686C20.3427 42.0036 19.6772 42.1797 19 42.1797C18.3228 42.1797 17.6573 42.0036 17.0687 41.6686L16.2021 41.1644L15.1187 40.4978L14.7187 40.2373L13.8646 39.6686C11.5479 38.1005 9.38972 36.3101 7.42083 34.3228C3.74167 30.5603 0.25 25.3207 0.25 18.9165C0.25 13.9437 2.22544 9.17456 5.74175 5.65825C9.25805 2.14194 14.0272 0.166504 19 0.166504ZM19 12.6665C18.1792 12.6665 17.3665 12.8282 16.6082 13.1423C15.8499 13.4563 15.1609 13.9167 14.5806 14.4971C14.0002 15.0775 13.5398 15.7664 13.2258 16.5247C12.9117 17.283 12.75 18.0957 12.75 18.9165C12.75 19.7373 12.9117 20.55 13.2258 21.3083C13.5398 22.0666 14.0002 22.7556 14.5806 23.3359C15.1609 23.9163 15.8499 24.3767 16.6082 24.6908C17.3665 25.0048 18.1792 25.1665 19 25.1665C20.6576 25.1665 22.2473 24.508 23.4194 23.3359C24.5915 22.1638 25.25 20.5741 25.25 18.9165C25.25 17.2589 24.5915 15.6692 23.4194 14.4971C22.2473 13.325 20.6576 12.6665 19 12.6665Z" fill="#888888"/>
</svg>
